<?xml version="1.0" encoding="UTF-8" standalone="no"?>
<!DOCTYPE svg PUBLIC "-//W3C//DTD SVG 1.1//EN" "http://www.w3.org/Graphics/SVG/1.1/DTD/svg11.dtd">
<svg width="100%" height="100%" viewBox="0 0 1080 1080" version="1.1" xmlns="http://www.w3.org/2000/svg" xmlns:xlink="http://www.w3.org/1999/xlink" xml:space="preserve" xmlns:serif="http://www.serif.com/" style="fill-rule:evenodd;clip-rule:evenodd;stroke-linejoin:round;stroke-miterlimit:2;">
    <g transform="matrix(1,0,0,1,-1357,0)">
        <g id="ligher" transform="matrix(1,0,0,1,-0.777778,0)">
            <rect x="1357.78" y="0" width="1080" height="1080" style="fill:none;"/>
            <g transform="matrix(0.339388,0,0,-0.339388,1332.51,1044.18)">
                <path d="M1898,2880C1597,2830 1373,2393 1430,1966C1437,1913 1440,1867 1437,1863C1433,1860 1409,1875 1383,1897C1145,2092 898,2183 605,2182C409,2182 273,2140 175,2049C109,1988 85,1932 85,1835C85,1766 90,1746 117,1687C216,1477 503,1312 847,1269C938,1258 1157,1262 1238,1276C1259,1280 1270,1278 1270,1270C1270,1264 1241,1222 1205,1177C1078,1019 1012,843 1003,640C996,491 1011,403 1060,301C1105,207 1156,153 1234,115C1281,92 1304,87 1368,87C1502,87 1610,142 1707,259C1855,438 1934,734 1901,983C1894,1031 1887,1077 1884,1085C1873,1113 1900,1100 1983,1037C2145,913 2258,858 2437,813C2532,789 2565,786 2710,786C2839,786 2889,789 2939,803C3157,864 3275,1015 3240,1187C3193,1417 2906,1620 2536,1687C2433,1705 2195,1708 2115,1692C2088,1686 2061,1685 2057,1689C2053,1694 2070,1721 2095,1751C2245,1927 2317,2108 2327,2335C2333,2472 2315,2571 2263,2676C2193,2822 2045,2904 1898,2880ZM1997,2609C2032,2596 2096,2535 2117,2495C2158,2418 2170,2301 2149,2198C2134,2121 2058,1975 1997,1903C1945,1842 1850,1753 1756,1678L1706,1638L1677,1717C1599,1929 1572,2138 1604,2281C1649,2485 1771,2618 1912,2620C1943,2620 1981,2615 1997,2609ZM895,1980C979,1953 1064,1912 1145,1857C1226,1802 1488,1544 1475,1531C1462,1518 1214,1454 1118,1439C1020,1424 806,1433 725,1455C449,1531 299,1744 412,1902C436,1936 505,1978 568,1996C637,2016 807,2008 895,1980ZM2584,1510C2795,1456 2937,1336 2957,1195C2961,1159 2958,1140 2937,1098C2889,1002 2791,957 2630,957C2456,956 2314,1008 2154,1128C2076,1187 1850,1411 1850,1429C1850,1445 2102,1512 2225,1529C2325,1543 2491,1534 2584,1510ZM1655,1233C1757,946 1765,717 1680,544C1620,422 1530,351 1423,342C1353,336 1274,373 1235,430C1124,590 1161,850 1323,1049C1385,1126 1588,1309 1611,1310C1622,1310 1636,1287 1655,1233Z" style="fill:rgb(45,190,238);fill-rule:nonzero;"/>
            </g>
        </g>
    </g>
</svg>
